<?xml version="1.0" encoding="UTF-8" standalone="no"?>
<!-- Created with Inkscape (http://www.inkscape.org/) -->

<svg
   width="103.93182mm"
   height="103.93182mm"
   viewBox="0 0 103.93182 103.93183"
   version="1.1"
   id="svg5"
   inkscape:version="1.1.1 (3bf5ae0d25, 2021-09-20)"
   sodipodi:docname="acna2022.svg"
   xmlns:inkscape="http://www.inkscape.org/namespaces/inkscape"
   xmlns:sodipodi="http://sodipodi.sourceforge.net/DTD/sodipodi-0.dtd"
   xmlns="http://www.w3.org/2000/svg"
   xmlns:svg="http://www.w3.org/2000/svg">
  <sodipodi:namedview
     id="namedview7"
     pagecolor="#ffffff"
     bordercolor="#666666"
     borderopacity="1.0"
     inkscape:pageshadow="2"
     inkscape:pageopacity="0.0"
     inkscape:pagecheckerboard="0"
     inkscape:document-units="mm"
     showgrid="false"
     inkscape:zoom="1.6017537"
     inkscape:cx="93.959514"
     inkscape:cy="332.44812"
     inkscape:window-width="2492"
     inkscape:window-height="1376"
     inkscape:window-x="68"
     inkscape:window-y="27"
     inkscape:window-maximized="1"
     inkscape:current-layer="text66618"
     fit-margin-top="0"
     fit-margin-left="0"
     fit-margin-right="0"
     fit-margin-bottom="0">
    <inkscape:grid
       type="xygrid"
       id="grid54742"
       originx="2.248906"
       originy="-13.824378" />
  </sodipodi:namedview>
  <defs
     id="defs2">
    <linearGradient
       id="cvfj"
       x1="-6874"
       x2="-6636"
       y1="2774"
       y2="2497"
       gradientTransform="matrix(0.434,-0.932,-0.932,-0.434,6223,-5053)"
       gradientUnits="userSpaceOnUse"
       inkscape:collect="always">
      <stop
         style="stop-color:#F59723"
         offset="0"
         id="stop58095" />
      <stop
         style="stop-color:#F69822"
         offset=".312"
         id="stop58097" />
      <stop
         style="stop-color:#E87726"
         offset=".838"
         id="stop58099" />
    </linearGradient>
    <linearGradient
       id="cvfi"
       x1="-8631"
       x2="-6937"
       y1="2805"
       y2="2805"
       gradientTransform="matrix(0.434,-0.932,-0.932,-0.434,6223,-5053)"
       gradientUnits="userSpaceOnUse"
       inkscape:collect="always">
      <stop
         style="stop-color:#9C2063"
         offset=".323"
         id="stop58102" />
      <stop
         style="stop-color:#C82037"
         offset=".63"
         id="stop58104" />
      <stop
         style="stop-color:#CC2135"
         offset=".751"
         id="stop58106" />
      <stop
         style="stop-color:#E87726"
         offset="1"
         id="stop58108" />
    </linearGradient>
    <linearGradient
       id="cvfh"
       x1="-8426"
       x2="-7417"
       y1="2635"
       y2="2635"
       gradientTransform="matrix(0.434,-0.932,-0.932,-0.434,6223,-5053)"
       gradientUnits="userSpaceOnUse"
       inkscape:collect="always">
      <stop
         style="stop-color:#282661"
         offset="0"
         id="stop58111" />
      <stop
         style="stop-color:#662E8C"
         offset=".0955"
         id="stop58113" />
      <stop
         style="stop-color:#9E2064"
         offset=".788"
         id="stop58115" />
      <stop
         style="stop-color:#CC2032"
         offset=".949"
         id="stop58117" />
    </linearGradient>
    <linearGradient
       id="cvfg"
       x1="-8536"
       x2="-6842"
       y1="2821"
       y2="2821"
       gradientTransform="matrix(0.434,-0.932,-0.932,-0.434,6223,-5053)"
       gradientUnits="userSpaceOnUse"
       inkscape:collect="always">
      <stop
         style="stop-color:#9C2063"
         offset=".323"
         id="stop58120" />
      <stop
         style="stop-color:#C82037"
         offset=".63"
         id="stop58122" />
      <stop
         style="stop-color:#CC2135"
         offset=".751"
         id="stop58124" />
      <stop
         style="stop-color:#E87726"
         offset="1"
         id="stop58126" />
    </linearGradient>
    <linearGradient
       id="cvff"
       x1="-8412"
       x2="-7522"
       y1="2798"
       y2="2798"
       gradientTransform="matrix(0.434,-0.932,-0.932,-0.434,6223,-5053)"
       gradientUnits="userSpaceOnUse"
       inkscape:collect="always">
      <stop
         style="stop-color:#282661"
         offset="0"
         id="stop58129" />
      <stop
         style="stop-color:#662E8C"
         offset=".0955"
         id="stop58131" />
      <stop
         style="stop-color:#9E2064"
         offset=".788"
         id="stop58133" />
      <stop
         style="stop-color:#CC2032"
         offset=".949"
         id="stop58135" />
    </linearGradient>
    <linearGradient
       id="cvfe"
       x1="-8536"
       x2="-6842"
       y1="2645"
       y2="2645"
       gradientTransform="matrix(0.434,-0.932,-0.932,-0.434,6223,-5053)"
       gradientUnits="userSpaceOnUse"
       inkscape:collect="always">
      <stop
         style="stop-color:#9C2063"
         offset=".323"
         id="stop58138" />
      <stop
         style="stop-color:#C82037"
         offset=".63"
         id="stop58140" />
      <stop
         style="stop-color:#CC2135"
         offset=".751"
         id="stop58142" />
      <stop
         style="stop-color:#E87726"
         offset="1"
         id="stop58144" />
    </linearGradient>
    <linearGradient
       id="cvfd"
       x1="-8641"
       x2="-6947"
       y1="2654"
       y2="2654"
       gradientTransform="matrix(0.434,-0.932,-0.932,-0.434,6223,-5053)"
       gradientUnits="userSpaceOnUse"
       inkscape:collect="always">
      <stop
         style="stop-color:#9C2063"
         offset=".323"
         id="stop58147" />
      <stop
         style="stop-color:#C82037"
         offset=".63"
         id="stop58149" />
      <stop
         style="stop-color:#CC2135"
         offset=".751"
         id="stop58151" />
      <stop
         style="stop-color:#E87726"
         offset="1"
         id="stop58153" />
    </linearGradient>
    <linearGradient
       id="cvfc"
       x1="-8536"
       x2="-6842"
       y1="2593"
       y2="2593"
       gradientTransform="matrix(0.434,-0.932,-0.932,-0.434,6223,-5053)"
       gradientUnits="userSpaceOnUse"
       inkscape:collect="always">
      <stop
         style="stop-color:#9C2063"
         offset=".323"
         id="stop58156" />
      <stop
         style="stop-color:#C82037"
         offset=".63"
         id="stop58158" />
      <stop
         style="stop-color:#CC2135"
         offset=".751"
         id="stop58160" />
      <stop
         style="stop-color:#E87726"
         offset="1"
         id="stop58162" />
    </linearGradient>
    <linearGradient
       id="cvfb"
       x1="-8536"
       x2="-6842"
       y1="2599"
       y2="2599"
       gradientTransform="matrix(0.434,-0.932,-0.932,-0.434,6223,-5053)"
       gradientUnits="userSpaceOnUse"
       inkscape:collect="always">
      <stop
         style="stop-color:#9C2063"
         offset=".323"
         id="stop58165" />
      <stop
         style="stop-color:#C82037"
         offset=".63"
         id="stop58167" />
      <stop
         style="stop-color:#CC2135"
         offset=".751"
         id="stop58169" />
      <stop
         style="stop-color:#E87726"
         offset="1"
         id="stop58171" />
    </linearGradient>
    <linearGradient
       id="cvfa"
       x1="-7584"
       x2="-7210"
       y1="2601"
       y2="2601"
       gradientTransform="matrix(0.434,-0.932,-0.932,-0.434,6223,-5053)"
       gradientUnits="userSpaceOnUse"
       inkscape:collect="always">
      <stop
         style="stop-color:#9C2063"
         offset=".323"
         id="stop58174" />
      <stop
         style="stop-color:#C82037"
         offset=".63"
         id="stop58176" />
      <stop
         style="stop-color:#CC2135"
         offset=".751"
         id="stop58178" />
      <stop
         style="stop-color:#E87726"
         offset="1"
         id="stop58180" />
    </linearGradient>
    <filter
       id="mask-powermask-path-effect2548_inverse"
       inkscape:label="filtermask-powermask-path-effect2548"
       style="color-interpolation-filters:sRGB"
       height="100"
       width="100"
       x="-50"
       y="-50">
      <feColorMatrix
         id="mask-powermask-path-effect2548_primitive1"
         values="1"
         type="saturate"
         result="fbSourceGraphic" />
      <feColorMatrix
         id="mask-powermask-path-effect2548_primitive2"
         values="-1 0 0 0 1 0 -1 0 0 1 0 0 -1 0 1 0 0 0 1 0 "
         in="fbSourceGraphic" />
    </filter>
    <filter
       id="mask-powermask-path-effect2565_inverse"
       inkscape:label="filtermask-powermask-path-effect2565"
       style="color-interpolation-filters:sRGB"
       height="100"
       width="100"
       x="-50"
       y="-50">
      <feColorMatrix
         id="mask-powermask-path-effect2565_primitive1"
         values="1"
         type="saturate"
         result="fbSourceGraphic" />
      <feColorMatrix
         id="mask-powermask-path-effect2565_primitive2"
         values="-1 0 0 0 1 0 -1 0 0 1 0 0 -1 0 1 0 0 0 1 0 "
         in="fbSourceGraphic" />
    </filter>
  </defs>
  <g
     inkscape:label="Layer 1"
     inkscape:groupmode="layer"
     id="layer1"
     transform="translate(2.2489061,-13.824379)">
    <rect
       style="fill:#ffffff;fill-opacity:1;fill-rule:evenodd;stroke:#000000;stroke-width:0.955115;stroke-linecap:round;stroke-linejoin:round;stroke-opacity:1;paint-order:markers fill stroke"
       id="rect4184"
       width="96.35894"
       height="50.97464"
       x="1.1837667"
       y="37.879761"
       rx="5.9694705"
       ry="5.9694705"
       inkscape:export-filename="/x1/squibble/server/htdocs/images/conference-logo.png"
       inkscape:export-xdpi="313.15213"
       inkscape:export-ydpi="313.15213" />
    <g
       id="g27319"
       transform="matrix(0.5038444,0,0,0.5038444,12.826275,31.960019)"
       inkscape:export-filename="/x1/squibble/server/htdocs/images/conference-logo.png"
       inkscape:export-xdpi="313.15213"
       inkscape:export-ydpi="313.15213">
      <path
         id="rect21651"
         style="fill:#0f6bd7;fill-rule:evenodd;stroke-width:1.4754;stroke-linecap:round;stroke-linejoin:round;paint-order:markers fill stroke"
         d="m 105.33057,23.526016 h 51.74397 V 40.99679 h -51.74397 z" />
      <g
         aria-label="APACHE"
         id="text5280"
         style="font-size:22.722px;line-height:1.25;font-family:'Montserrat Medium';-inkscape-font-specification:'Montserrat Medium, ';text-align:center;letter-spacing:0px;word-spacing:0px;text-anchor:middle;fill:#0f6bd7;stroke-width:0.568051">
        <path
           d="m 18.556343,36.173636 h -8.452584 l -1.7495937,3.97635 h -2.340366 l 7.2028737,-15.9054 h 2.249478 l 7.225596,15.9054 h -2.38581 z m -0.79527,-1.81776 -3.431022,-7.793646 -3.431022,7.793646 z"
           id="path57248" />
        <path
           d="m 31.257907,24.244586 q 3.090192,0 4.862508,1.47693 1.772316,1.47693 1.772316,4.067238 0,2.590308 -1.772316,4.067238 -1.772316,1.47693 -4.862508,1.47693 H 27.327 v 4.817064 h -2.2722 v -15.9054 z m -0.06817,9.111522 q 2.15859,0 3.29469,-0.90888 1.1361,-0.931602 1.1361,-2.658474 0,-1.726872 -1.1361,-2.635752 -1.1361,-0.931602 -3.29469,-0.931602 H 27.327 v 7.134708 z"
           id="path57250" />
        <path
           d="M 50.571564,36.173636 H 42.11898 l -1.749594,3.97635 H 38.02902 l 7.202874,-15.9054 h 2.249478 l 7.225596,15.9054 h -2.38581 z m -0.79527,-1.81776 -3.431022,-7.793646 -3.431022,7.793646 z"
           id="path57252" />
        <path
           d="m 63.954781,40.331762 q -2.38581,0 -4.31718,-1.045212 -1.908648,-1.067934 -2.999304,-2.908416 -1.090656,-1.863204 -1.090656,-4.180848 0,-2.317644 1.090656,-4.158126 1.090656,-1.863204 3.022026,-2.908416 1.93137,-1.067934 4.31718,-1.067934 1.863204,0 3.4083,0.636216 1.545096,0.613494 2.635752,1.840482 l -1.47693,1.431486 q -1.795038,-1.885926 -4.476234,-1.885926 -1.772316,0 -3.203802,0.79527 -1.431486,0.79527 -2.249478,2.204034 -0.79527,1.386042 -0.79527,3.112914 0,1.726872 0.79527,3.135636 0.817992,1.386042 2.249478,2.181312 1.431486,0.79527 3.203802,0.79527 2.658474,0 4.476234,-1.908648 l 1.47693,1.431486 q -1.090656,1.226988 -2.658474,1.863204 -1.545096,0.636216 -3.4083,0.636216 z"
           id="path57254" />
        <path
           d="m 86.949433,24.244586 v 15.9054 h -2.2722 v -7.089264 h -9.134244 v 7.089264 h -2.2722 v -15.9054 h 2.2722 v 6.839322 h 9.134244 v -6.839322 z"
           id="path57256" />
        <path
           d="m 103.2638,38.173172 v 1.976814 H 91.721022 v -15.9054 H 102.94569 V 26.2214 h -8.952468 v 4.88523 h 7.975418 V 33.038 h -7.975418 v 5.135172 z"
           id="path57258" />
      </g>
      <g
         aria-label="CON"
         id="text5280-9"
         style="font-size:22.722px;line-height:1.25;font-family:'Montserrat Medium';-inkscape-font-specification:'Montserrat Medium, ';text-align:center;letter-spacing:0px;word-spacing:0px;text-anchor:middle;fill:#ffffff;stroke-width:0.568051">
        <path
           d="m 114.61765,40.263596 q -2.34037,0 -4.22629,-1.045212 -1.86321,-1.045212 -2.95386,-2.885694 -1.06794,-1.840482 -1.06794,-4.135404 0,-2.294922 1.06794,-4.135404 1.09065,-1.840482 2.95386,-2.885694 1.88592,-1.045212 4.22629,-1.045212 1.72687,0 3.18108,0.56805 1.45421,0.545328 2.4767,1.635984 l -0.72711,0.749826 q -1.90865,-1.885926 -4.88523,-1.885926 -1.99953,0 -3.63552,0.90888 -1.63598,0.90888 -2.56758,2.522142 -0.93161,1.59054 -0.93161,3.567354 0,1.976814 0.93161,3.590076 0.9316,1.59054 2.56758,2.49942 1.63599,0.90888 3.63552,0.90888 2.95386,0 4.88523,-1.908648 l 0.72711,0.749826 q -1.02249,1.090656 -2.49942,1.658706 -1.45421,0.56805 -3.15836,0.56805 z"
           style="font-family:'Montserrat Light';-inkscape-font-specification:'Montserrat Light, '"
           id="path57279" />
        <path
           d="m 130.56845,40.263596 q -2.34036,0 -4.22629,-1.045212 -1.88592,-1.067934 -2.97658,-2.908416 -1.06793,-1.840482 -1.06793,-4.112682 0,-2.2722 1.06793,-4.112682 1.09066,-1.840482 2.97658,-2.885694 1.88593,-1.067934 4.22629,-1.067934 2.34037,0 4.2263,1.045212 1.88592,1.045212 2.95386,2.885694 1.09065,1.840482 1.09065,4.135404 0,2.294922 -1.09065,4.135404 -1.06794,1.840482 -2.95386,2.885694 -1.88593,1.045212 -4.2263,1.045212 z m 0,-1.067934 q 1.99954,0 3.6128,-0.90888 1.61326,-0.90888 2.54487,-2.49942 0.9316,-1.613262 0.9316,-3.590076 0,-1.976814 -0.9316,-3.567354 -0.93161,-1.613262 -2.54487,-2.522142 -1.61326,-0.90888 -3.6128,-0.90888 -1.99953,0 -3.63552,0.90888 -1.61326,0.90888 -2.54486,2.522142 -0.9316,1.59054 -0.9316,3.567354 0,1.976814 0.9316,3.590076 0.9316,1.59054 2.54486,2.49942 1.63599,0.90888 3.63552,0.90888 z"
           style="font-family:'Montserrat Light';-inkscape-font-specification:'Montserrat Light, '"
           id="path57281" />
        <path
           d="m 155.81258,24.244586 v 15.9054 h -0.95432 L 144.01986,26.33501 v 13.814976 h -1.15882 v -15.9054 h 0.97705 l 10.81567,13.814976 V 24.244586 Z"
           style="font-family:'Montserrat Light';-inkscape-font-specification:'Montserrat Light, '"
           id="path57283" />
      </g>
    </g>
    <g
       aria-label="NORTH AMERICA"
       id="text11936"
       style="font-size:13.9963px;line-height:1.25;font-family:'Montserrat Medium';-inkscape-font-specification:'Montserrat Medium, ';text-align:center;letter-spacing:0px;word-spacing:0px;text-anchor:middle;fill:#c60058;stroke-width:0.349908"
       inkscape:export-filename="/x1/squibble/server/htdocs/images/conference-logo.png"
       inkscape:export-xdpi="313.15213"
       inkscape:export-ydpi="313.15213"
       transform="matrix(0.5038444,0,0,0.5038444,12.826275,33.92029)">
      <path
         d="m 28.631243,40.723468 v 9.79741 H 27.483546 L 21.6051,43.214809 v 7.306069 h -1.39963 v -9.79741 h 1.147697 l 5.878446,7.306068 v -7.306068 z"
         id="path57304" />
      <path
         d="m 35.993273,50.632848 q -1.483608,0 -2.673293,-0.64383 -1.189686,-0.657826 -1.875504,-1.805522 -0.671823,-1.147697 -0.671823,-2.561323 0,-1.413626 0.671823,-2.561323 0.685818,-1.147697 1.875504,-1.791526 1.189685,-0.657826 2.673293,-0.657826 1.469612,0 2.659297,0.657826 1.189685,0.643829 1.861508,1.791526 0.671822,1.1337 0.671822,2.561323 0,1.427623 -0.671822,2.575319 -0.671823,1.1337 -1.861508,1.791526 -1.189685,0.64383 -2.659297,0.64383 z m 0,-1.24567 q 1.077715,0 1.931489,-0.489871 0.867771,-0.48987 1.357642,-1.343645 0.503866,-0.86777 0.503866,-1.931489 0,-1.063719 -0.503866,-1.917493 -0.489871,-0.867771 -1.357642,-1.357641 -0.853774,-0.489871 -1.931489,-0.489871 -1.077715,0 -1.959482,0.489871 -0.86777,0.48987 -1.371637,1.357641 -0.489871,0.853774 -0.489871,1.917493 0,1.063719 0.489871,1.931489 0.503867,0.853775 1.371637,1.343645 0.881767,0.489871 1.959482,0.489871 z"
         id="path57306" />
      <path
         d="m 49.877578,50.520878 -2.113441,-3.009205 q -0.391897,0.02799 -0.615837,0.02799 h -2.42136 v 2.981212 h -1.39963 v -9.79741 h 3.82099 q 1.903496,0 2.995208,0.90976 1.091711,0.909759 1.091711,2.505337 0,1.1337 -0.559852,1.93149 -0.559852,0.797789 -1.595578,1.161692 l 2.323386,3.289131 z m -2.771267,-4.170897 q 1.329648,0 2.029463,-0.573849 0.699815,-0.573848 0.699815,-1.637567 0,-1.063719 -0.699815,-1.623571 -0.699815,-0.573848 -2.029463,-0.573848 H 44.72694 v 4.408835 z"
         id="path57308" />
      <path
         d="m 55.308129,41.941146 h -3.359112 v -1.217678 h 8.103858 v 1.217678 h -3.359112 v 8.579732 h -1.385634 z"
         id="path57310" />
      <path
         d="m 70.004244,40.723468 v 9.79741 h -1.39963 v -4.366846 h -5.626513 v 4.366846 h -1.39963 v -9.79741 h 1.39963 v 4.212886 h 5.626513 v -4.212886 z"
         id="path57312" />
      <path
         d="M 82.950784,48.071525 H 77.74416 l -1.077715,2.449353 h -1.441619 l 4.436827,-9.79741 h 1.385634 l 4.450823,9.79741 h -1.469611 z m -0.489871,-1.119704 -2.113441,-4.80073 -2.113441,4.80073 z"
         id="path57314" />
      <path
         d="m 96.037299,50.520878 -0.014,-7.138113 -3.541063,5.948427 h -0.64383 l -3.541064,-5.906438 v 7.096124 H 86.9537 v -9.79741 h 1.147697 l 4.086919,6.886179 4.030935,-6.886179 h 1.147696 l 0.014,9.79741 z"
         id="path57316" />
      <path
         d="m 107.43029,49.3032 v 1.217678 h -7.11012 v -9.79741 h 6.91417 v 1.217678 h -5.51454 v 3.009205 h 4.9127 v 1.189685 h -4.9127 V 49.3032 Z"
         id="path57318" />
      <path
         d="m 116.24793,50.520878 -2.11344,-3.009205 q -0.39189,0.02799 -0.61583,0.02799 h -2.42136 v 2.981212 h -1.39963 v -9.79741 h 3.82099 q 1.90349,0 2.9952,0.90976 1.09171,0.909759 1.09171,2.505337 0,1.1337 -0.55985,1.93149 -0.55985,0.797789 -1.59558,1.161692 l 2.32339,3.289131 z m -2.77126,-4.170897 q 1.32964,0 2.02946,-0.573849 0.69981,-0.573848 0.69981,-1.637567 0,-1.063719 -0.69981,-1.623571 -0.69982,-0.573848 -2.02946,-0.573848 h -2.37937 v 4.408835 z"
         id="path57320" />
      <path
         d="m 119.87297,40.723468 h 1.39963 v 9.79741 h -1.39963 z"
         id="path57322" />
      <path
         d="m 128.59265,50.632848 q -1.46961,0 -2.65929,-0.64383 -1.17569,-0.657826 -1.84752,-1.791526 -0.67182,-1.147696 -0.67182,-2.575319 0,-1.427623 0.67182,-2.561323 0.67183,-1.147697 1.86151,-1.791526 1.18969,-0.657826 2.6593,-0.657826 1.14769,0 2.09944,0.391896 0.95175,0.3779 1.62357,1.1337 l -0.90976,0.881767 q -1.1057,-1.161693 -2.75727,-1.161693 -1.09171,0 -1.97347,0.489871 -0.88177,0.48987 -1.38564,1.357641 -0.48987,0.853774 -0.48987,1.917493 0,1.063719 0.48987,1.931489 0.50387,0.853775 1.38564,1.343645 0.88176,0.489871 1.97347,0.489871 1.63757,0 2.75727,-1.17569 l 0.90976,0.881767 q -0.67182,0.7558 -1.63756,1.147697 -0.95175,0.391896 -2.09945,0.391896 z"
         id="path57324" />
      <path
         d="m 140.33554,48.071525 h -5.20663 l -1.07771,2.449353 h -1.44162 l 4.43683,-9.79741 h 1.38563 l 4.45082,9.79741 h -1.46961 z m -0.48987,-1.119704 -2.11344,-4.80073 -2.11344,4.80073 z"
         id="path57326" />
    </g>
    <g
       aria-label="OCTOBER 3 - 7, 2022 NEW ORLEANS, LOUISIANA"
       id="text22671"
       style="font-size:7.96962px;line-height:1.25;font-family:'Montserrat Light';-inkscape-font-specification:'Montserrat Light, ';letter-spacing:0px;word-spacing:0px;stroke-width:0.199241"
       inkscape:export-filename="/x1/squibble/server/htdocs/images/conference-logo.png"
       inkscape:export-xdpi="313.15213"
       inkscape:export-ydpi="313.15213"
       transform="matrix(0.59694662,0,0,0.59694662,-1.2168641,27.895661)">
      <g
         aria-label="OCTOBER 3 - 6, 2022
    NEW ORLEANS
    LOUISIANA"
         id="text66618"
         style="font-size:11.5026px;line-height:0;font-family:'Montserrat Medium';-inkscape-font-specification:'Montserrat Medium, ';text-align:center;text-anchor:middle;stroke-width:0.057295">
        <path
           d="m 48.086499,70.765628 q -1.219276,0 -2.196997,-0.52912 -0.977721,-0.540622 -1.541348,-1.483835 -0.552125,-0.943213 -0.552125,-2.104976 0,-1.161763 0.552125,-2.104976 0.563627,-0.943213 1.541348,-1.472333 0.977721,-0.540622 2.196997,-0.540622 1.207773,0 2.185494,0.540622 0.977721,0.52912 1.529845,1.472333 0.552125,0.931711 0.552125,2.104976 0,1.173265 -0.552125,2.116478 -0.552124,0.931711 -1.529845,1.472333 -0.977721,0.52912 -2.185494,0.52912 z m 0,-1.023732 q 0.8857,0 1.587358,-0.402591 0.713162,-0.402591 1.115753,-1.104249 0.414093,-0.713161 0.414093,-1.587359 0,-0.874198 -0.414093,-1.575856 -0.402591,-0.713161 -1.115753,-1.115752 -0.701658,-0.402591 -1.587358,-0.402591 -0.885701,0 -1.610364,0.402591 -0.713162,0.402591 -1.127255,1.115752 -0.402591,0.701658 -0.402591,1.575856 0,0.874198 0.402591,1.587359 0.414093,0.701658 1.127255,1.104249 0.724663,0.402591 1.610364,0.402591 z"
           style="line-height:1.35;text-align:start;text-anchor:start"
           id="path1287" />
        <path
           d="m 57.714155,70.765628 q -1.207773,0 -2.185494,-0.52912 -0.966219,-0.540622 -1.518344,-1.472333 -0.552124,-0.943213 -0.552124,-2.116478 0,-1.173265 0.552124,-2.104976 0.552125,-0.943213 1.529846,-1.472333 0.977721,-0.540622 2.185494,-0.540622 0.943213,0 1.72539,0.322073 0.782177,0.31057 1.334302,0.931711 l -0.747669,0.724663 q -0.908706,-0.954715 -2.266012,-0.954715 -0.897203,0 -1.621867,0.402591 -0.724664,0.402591 -1.138757,1.115752 -0.402591,0.701658 -0.402591,1.575856 0,0.874198 0.402591,1.587359 0.414093,0.701658 1.138757,1.104249 0.724664,0.402591 1.621867,0.402591 1.345804,0 2.266012,-0.966218 l 0.747669,0.724664 q -0.552125,0.62114 -1.345805,0.943213 -0.782176,0.322073 -1.725389,0.322073 z"
           style="line-height:1.35;text-align:start;text-anchor:start"
           id="path1289" />
        <path
           d="m 63.93704,63.622513 h -2.760624 v -1.000726 h 6.660005 v 1.000726 h -2.760624 v 7.051094 H 63.93704 Z"
           style="line-height:1.35;text-align:start;text-anchor:start"
           id="path1291" />
        <path
           d="m 72.609997,70.765628 q -1.219275,0 -2.196996,-0.52912 -0.977721,-0.540622 -1.541349,-1.483835 -0.552125,-0.943213 -0.552125,-2.104976 0,-1.161763 0.552125,-2.104976 0.563628,-0.943213 1.541349,-1.472333 0.977721,-0.540622 2.196996,-0.540622 1.207773,0 2.185494,0.540622 0.977721,0.52912 1.529846,1.472333 0.552125,0.931711 0.552125,2.104976 0,1.173265 -0.552125,2.116478 -0.552125,0.931711 -1.529846,1.472333 -0.977721,0.52912 -2.185494,0.52912 z m 0,-1.023732 q 0.8857,0 1.587359,-0.402591 0.713161,-0.402591 1.115752,-1.104249 0.414094,-0.713161 0.414094,-1.587359 0,-0.874198 -0.414094,-1.575856 -0.402591,-0.713161 -1.115752,-1.115752 -0.701659,-0.402591 -1.587359,-0.402591 -0.8857,0 -1.610364,0.402591 -0.713161,0.402591 -1.127255,1.115752 -0.402591,0.701658 -0.402591,1.575856 0,0.874198 0.402591,1.587359 0.414094,0.701658 1.127255,1.104249 0.724664,0.402591 1.610364,0.402591 z"
           style="line-height:1.35;text-align:start;text-anchor:start"
           id="path1293" />
        <path
           d="m 84.055063,66.498163 q 0.701658,0.195544 1.104249,0.713161 0.402591,0.506115 0.402591,1.288292 0,1.046736 -0.793679,1.610363 -0.782177,0.563628 -2.289017,0.563628 h -3.841869 v -8.05182 h 3.611817 q 1.380312,0 2.127981,0.552125 0.759171,0.552125 0.759171,1.529846 0,0.632643 -0.299067,1.092747 -0.287565,0.460104 -0.782177,0.701658 z m -4.267465,-2.944665 v 2.576582 h 2.358033 q 0.8857,0 1.357307,-0.322073 0.483109,-0.333575 0.483109,-0.966218 0,-0.632643 -0.483109,-0.954716 -0.471607,-0.333575 -1.357307,-0.333575 z m 2.645598,6.188398 q 0.977721,0 1.472333,-0.322072 0.494612,-0.322073 0.494612,-1.012229 0,-1.345804 -1.966945,-1.345804 h -2.645598 v 2.680105 z"
           style="line-height:1.35;text-align:start;text-anchor:start"
           id="path1295" />
        <path
           d="m 93.188129,69.672881 v 1.000726 h -5.843321 v -8.05182 h 5.682285 v 1.000726 h -4.532025 v 2.473059 h 4.037413 v 0.977721 h -4.037413 v 2.599588 z"
           style="line-height:1.35;text-align:start;text-anchor:start"
           id="path1297" />
        <path
           d="m 100.43474,70.673607 -1.736889,-2.473059 q -0.322073,0.023 -0.506114,0.023 h -1.98995 v 2.450054 h -1.15026 v -8.05182 h 3.14021 q 1.564353,0 2.461553,0.747669 0.89721,0.747669 0.89721,2.058965 0,0.931711 -0.46011,1.587359 -0.4601,0.655648 -1.311295,0.954716 l 1.909435,2.703111 z m -2.277511,-3.427775 q 1.092747,0 1.667877,-0.471606 0.575134,-0.471607 0.575134,-1.345805 0,-0.874197 -0.575134,-1.334301 -0.57513,-0.471607 -1.667877,-0.471607 h -1.955442 v 3.623319 z"
           style="line-height:1.35;text-align:start;text-anchor:start"
           id="path1299" />
        <path
           d="m 108.93515,66.003551 q 1.18477,0.115026 1.80591,0.736167 0.62114,0.609638 0.62114,1.564353 0,0.690156 -0.34508,1.253784 -0.34508,0.552124 -1.03523,0.8857 -0.67866,0.322073 -1.66788,0.322073 -0.8627,0 -1.65638,-0.253058 -0.79368,-0.264559 -1.29979,-0.724663 l 0.52912,-0.908706 q 0.41409,0.391089 1.05824,0.632643 0.64414,0.230052 1.36881,0.230052 0.8972,0 1.39181,-0.379585 0.50612,-0.379586 0.50612,-1.046737 0,-0.667151 -0.49461,-1.035234 -0.49462,-0.368083 -1.49534,-0.368083 h -0.64415 v -0.805182 l 2.02446,-2.484562 h -3.87638 v -1.000726 h 5.3142 v 0.782177 z"
           style="line-height:1.35;text-align:start;text-anchor:start"
           id="path1301" />
        <path
           d="m 115.62963,67.038785 h 3.0942 v 0.954716 h -3.0942 z"
           style="line-height:1.35;text-align:start;text-anchor:start"
           id="path1303" />
        <path
           d="m 126.49957,65.785002 q 0.79368,0 1.41482,0.299068 0.63265,0.299067 0.98923,0.862695 0.35658,0.552124 0.35658,1.276788 0,0.759172 -0.37959,1.334302 -0.36808,0.57513 -1.02373,0.897202 -0.64415,0.310571 -1.44933,0.310571 -1.62186,0 -2.50756,-1.046737 -0.8742,-1.046736 -0.8742,-2.967671 0,-1.345804 0.4716,-2.289017 0.48311,-0.954716 1.33431,-1.437825 0.86269,-0.494612 2.00145,-0.494612 0.58663,0 1.10425,0.126529 0.51762,0.115026 0.8972,0.345078 l -0.4371,0.897203 q -0.57513,-0.379586 -1.54135,-0.379586 -1.25378,0 -1.96694,0.782177 -0.71316,0.770674 -0.71316,2.254509 0,0.184042 0.0115,0.287565 0.34508,-0.517617 0.94321,-0.782177 0.60964,-0.276062 1.36881,-0.276062 z m -0.13803,4.048915 q 0.79368,0 1.28829,-0.425596 0.49461,-0.425596 0.49461,-1.138757 0,-0.713162 -0.50611,-1.127255 -0.49461,-0.425596 -1.3343,-0.425596 -0.54062,0 -0.96622,0.207046 -0.41409,0.207047 -0.65565,0.563628 -0.23005,0.35658 -0.23005,0.793679 0,0.425596 0.21855,0.782177 0.23005,0.345078 0.65565,0.563627 0.4371,0.207047 1.03523,0.207047 z"
           style="line-height:1.35;text-align:start;text-anchor:start"
           id="path1305" />
        <path
           d="m 131.00856,69.166766 q 0.32207,0 0.52912,0.230052 0.21855,0.21855 0.21855,0.552125 0,0.172539 -0.046,0.333575 -0.0345,0.161037 -0.14954,0.494612 l -0.54062,1.598862 h -0.72466 l 0.42559,-1.713888 q -0.21854,-0.08052 -0.35658,-0.26456 -0.12652,-0.195544 -0.12652,-0.448601 0,-0.345078 0.21854,-0.563627 0.21855,-0.21855 0.55213,-0.21855 z"
           style="line-height:1.35;text-align:start;text-anchor:start"
           id="path1307" />
        <path
           d="m 141.60243,69.672881 v 1.000726 h -5.7858 V 69.89143 l 3.27824,-3.163215 q 0.59813,-0.57513 0.80518,-0.989223 0.20705,-0.425597 0.20705,-0.851193 0,-0.632643 -0.44861,-0.977721 -0.43709,-0.35658 -1.26528,-0.35658 -1.3343,0 -2.05897,0.874197 l -0.78217,-0.678653 q 0.4716,-0.57513 1.23077,-0.897203 0.77068,-0.322073 1.71389,-0.322073 1.26529,0 2.01296,0.609638 0.74767,0.598135 0.74767,1.633369 0,0.644146 -0.27607,1.219276 -0.27606,0.57513 -1.04673,1.311296 l -2.46156,2.369536 z"
           style="line-height:1.35;text-align:start;text-anchor:start"
           id="path1309" />
        <path
           d="m 145.80088,70.765628 q -0.95472,0 -1.70239,-0.48311 -0.73617,-0.494611 -1.16176,-1.426322 -0.4256,-0.93171 -0.4256,-2.208499 0,-1.276789 0.4256,-2.208499 0.42559,-0.931711 1.16176,-1.41482 0.74767,-0.494612 1.70239,-0.494612 0.94321,0 1.67938,0.494612 0.74766,0.483109 1.17326,1.41482 0.4256,0.93171 0.4256,2.208499 0,1.276789 -0.4256,2.208499 -0.4256,0.931711 -1.17326,1.426322 -0.73617,0.48311 -1.67938,0.48311 z m 0,-1.023732 q 0.96621,0 1.54134,-0.793679 0.58664,-0.793679 0.58664,-2.30052 0,-1.506841 -0.58664,-2.30052 -0.57513,-0.793679 -1.54134,-0.793679 -0.97773,0 -1.56436,0.793679 -0.57513,0.793679 -0.57513,2.30052 0,1.506841 0.57513,2.30052 0.58663,0.793679 1.56436,0.793679 z"
           style="line-height:1.35;text-align:start;text-anchor:start"
           id="path1311" />
        <path
           d="m 155.80813,69.672881 v 1.000726 h -5.78581 V 69.89143 l 3.27824,-3.163215 q 0.59814,-0.57513 0.80518,-0.989223 0.20705,-0.425597 0.20705,-0.851193 0,-0.632643 -0.4486,-0.977721 -0.4371,-0.35658 -1.26529,-0.35658 -1.3343,0 -2.05896,0.874197 l -0.78218,-0.678653 q 0.47161,-0.57513 1.23078,-0.897203 0.77067,-0.322073 1.71389,-0.322073 1.26528,0 2.01295,0.609638 0.74767,0.598135 0.74767,1.633369 0,0.644146 -0.27606,1.219276 -0.27606,0.57513 -1.04674,1.311296 l -2.46155,2.369536 z"
           style="line-height:1.35;text-align:start;text-anchor:start"
           id="path1313" />
        <path
           d="m 162.41061,69.672881 v 1.000726 h -5.7858 V 69.89143 l 3.27824,-3.163215 q 0.59813,-0.57513 0.80518,-0.989223 0.20705,-0.425597 0.20705,-0.851193 0,-0.632643 -0.4486,-0.977721 -0.4371,-0.35658 -1.26529,-0.35658 -1.3343,0 -2.05897,0.874197 l -0.78217,-0.678653 q 0.4716,-0.57513 1.23078,-0.897203 0.77067,-0.322073 1.71388,-0.322073 1.26529,0 2.01296,0.609638 0.74767,0.598135 0.74767,1.633369 0,0.644146 -0.27607,1.219276 -0.27606,0.57513 -1.04673,1.311296 l -2.46156,2.369536 z"
           style="line-height:1.35;text-align:start;text-anchor:start"
           id="path1315" />
        <path
           d="m 63.752998,76.424907 v 8.051819 h -0.943213 l -4.831092,-6.004357 v 6.004357 h -1.15026 v -8.051819 h 0.943213 l 4.831092,6.004357 v -6.004357 z"
           style="line-height:1.05;text-align:start;text-anchor:start"
           id="path1317" />
        <path
           d="m 72.011846,83.476 v 1.000726 h -5.843321 v -8.051819 h 5.682285 v 1.000726 h -4.532025 v 2.473059 h 4.037413 v 0.977721 H 67.318785 V 83.476 Z"
           style="line-height:1.05;text-align:start;text-anchor:start"
           id="path1319" />
        <path
           d="m 85.136289,76.424907 -2.691609,8.051819 h -1.207773 l -2.196996,-6.429953 -2.196997,6.429953 h -1.230778 l -2.691608,-8.051819 h 1.184767 l 2.173992,6.544979 2.266012,-6.544979 h 1.058239 l 2.220002,6.579487 2.220002,-6.579487 z"
           style="line-height:1.05;text-align:start;text-anchor:start"
           id="path1321" />
        <path
           d="m 93.441147,84.568747 q -1.219275,0 -2.196996,-0.529119 -0.977721,-0.540623 -1.541349,-1.483836 -0.552125,-0.943213 -0.552125,-2.104976 0,-1.161762 0.552125,-2.104975 0.563628,-0.943213 1.541349,-1.472333 0.977721,-0.540622 2.196996,-0.540622 1.207773,0 2.185494,0.540622 0.977721,0.52912 1.529846,1.472333 0.552125,0.93171 0.552125,2.104975 0,1.173266 -0.552125,2.116479 -0.552125,0.93171 -1.529846,1.472333 -0.977721,0.529119 -2.185494,0.529119 z m 0,-1.023731 q 0.8857,0 1.587359,-0.402591 0.713161,-0.402591 1.115752,-1.10425 0.414094,-0.713161 0.414094,-1.587359 0,-0.874197 -0.414094,-1.575856 -0.402591,-0.713161 -1.115752,-1.115752 -0.701659,-0.402591 -1.587359,-0.402591 -0.8857,0 -1.610364,0.402591 -0.713161,0.402591 -1.127255,1.115752 -0.402591,0.701659 -0.402591,1.575856 0,0.874198 0.402591,1.587359 0.414094,0.701659 1.127255,1.10425 0.724664,0.402591 1.610364,0.402591 z"
           style="line-height:1.05;text-align:start;text-anchor:start"
           id="path1323" />
        <path
           d="m 104.85171,84.476726 -1.73689,-2.473059 q -0.32208,0.02301 -0.50612,0.02301 h -1.98995 v 2.450053 h -1.150258 v -8.051819 h 3.140208 q 1.56436,0 2.46156,0.747669 0.8972,0.747669 0.8972,2.058965 0,0.931711 -0.4601,1.587359 -0.46011,0.655648 -1.3113,0.954715 l 1.90943,2.703111 z m -2.27752,-3.427774 q 1.09275,0 1.66788,-0.471607 0.57513,-0.471606 0.57513,-1.345804 0,-0.874198 -0.57513,-1.334302 -0.57513,-0.471606 -1.66788,-0.471606 h -1.95544 v 3.623319 z"
           style="line-height:1.05;text-align:start;text-anchor:start"
           id="path1325" />
        <path
           d="m 107.83087,76.424907 h 1.15026 V 83.476 h 4.35949 v 1.000726 h -5.50975 z"
           style="line-height:1.05;text-align:start;text-anchor:start"
           id="path1327" />
        <path
           d="m 120.50674,83.476 v 1.000726 h -5.84332 v -8.051819 h 5.68228 v 1.000726 h -4.53202 v 2.473059 h 4.03741 v 0.977721 h -4.03741 V 83.476 Z"
           style="line-height:1.05;text-align:start;text-anchor:start"
           id="path1329" />
        <path
           d="m 127.50029,82.463771 h -4.27896 l -0.8857,2.012955 h -1.18477 l 3.64632,-8.051819 h 1.13876 l 3.65783,8.051819 h -1.20778 z m -0.40259,-0.920208 -1.73689,-3.945391 -1.73689,3.945391 z"
           style="line-height:1.05;text-align:start;text-anchor:start"
           id="path1331" />
        <path
           d="m 137.71458,76.424907 v 8.051819 h -0.94321 l -4.83109,-6.004357 v 6.004357 h -1.15026 v -8.051819 h 0.94321 l 4.83109,6.004357 v -6.004357 z"
           style="line-height:1.05;text-align:start;text-anchor:start"
           id="path1333" />
        <path
           d="m 142.47664,84.568747 q -0.9087,0 -1.75989,-0.276062 -0.83969,-0.287565 -1.3228,-0.736167 l 0.42559,-0.897202 q 0.46011,0.414093 1.17327,0.678653 0.72466,0.253057 1.48383,0.253057 1.00073,0 1.49534,-0.333575 0.49461,-0.345078 0.49461,-0.908706 0,-0.414093 -0.27606,-0.66715 -0.26456,-0.26456 -0.66715,-0.402591 -0.39109,-0.138032 -1.11575,-0.310571 -0.90871,-0.218549 -1.47233,-0.437098 -0.55213,-0.21855 -0.95472,-0.667151 -0.39109,-0.460104 -0.39109,-1.230778 0,-0.644146 0.33358,-1.161763 0.34507,-0.517617 1.03523,-0.828187 0.69016,-0.31057 1.71389,-0.31057 0.71316,0 1.40332,0.184041 0.69015,0.184042 1.18476,0.52912 l -0.37958,0.920208 q -0.50612,-0.322073 -1.08125,-0.483109 -0.57513,-0.172539 -1.12725,-0.172539 -0.97772,0 -1.47233,0.35658 -0.48311,0.356581 -0.48311,0.920208 0,0.414094 0.27606,0.678654 0.27606,0.253057 0.67865,0.402591 0.4141,0.138031 1.11575,0.299067 0.90871,0.21855 1.46083,0.437099 0.55213,0.218549 0.94322,0.667151 0.40259,0.448601 0.40259,1.207773 0,0.632643 -0.34508,1.161762 -0.34508,0.517617 -1.04674,0.828188 -0.70165,0.299067 -1.72539,0.299067 z"
           style="line-height:1.05;text-align:start;text-anchor:start"
           id="path1335" />
        <path
           d="m 56.828433,88.502636 h 1.15026 v 7.051093 h 4.359485 v 1.000727 h -5.509745 z"
           style="line-height:1.05;text-align:start;text-anchor:start"
           id="path1337" />
        <path
           d="m 67.146258,96.646476 q -1.219276,0 -2.196997,-0.529119 -0.977721,-0.540622 -1.541348,-1.483836 -0.552125,-0.943213 -0.552125,-2.104975 0,-1.161763 0.552125,-2.104976 0.563627,-0.943213 1.541348,-1.472333 0.977721,-0.540622 2.196997,-0.540622 1.207773,0 2.185494,0.540622 0.977721,0.52912 1.529845,1.472333 0.552125,0.93171 0.552125,2.104976 0,1.173265 -0.552125,2.116478 -0.552124,0.931711 -1.529845,1.472333 -0.977721,0.529119 -2.185494,0.529119 z m 0,-1.023731 q 0.8857,0 1.587358,-0.402591 0.713162,-0.402591 1.115753,-1.10425 0.414093,-0.713161 0.414093,-1.587358 0,-0.874198 -0.414093,-1.575857 -0.402591,-0.713161 -1.115753,-1.115752 -0.701658,-0.402591 -1.587358,-0.402591 -0.8857,0 -1.610364,0.402591 -0.713161,0.402591 -1.127255,1.115752 -0.402591,0.701659 -0.402591,1.575857 0,0.874197 0.402591,1.587358 0.414094,0.701659 1.127255,1.10425 0.724664,0.402591 1.610364,0.402591 z"
           style="line-height:1.05;text-align:start;text-anchor:start"
           id="path1339" />
        <path
           d="m 76.509355,96.646476 q -1.610364,0 -2.507567,-0.920208 -0.897203,-0.920208 -0.897203,-2.645598 v -4.578034 h 1.15026 v 4.532024 q 0,2.588085 2.266012,2.588085 1.10425,0 1.690883,-0.632643 0.586632,-0.644146 0.586632,-1.955442 v -4.532024 h 1.115752 v 4.578034 q 0,1.736893 -0.897202,2.657101 -0.897203,0.908705 -2.507567,0.908705 z"
           style="line-height:1.05;text-align:start;text-anchor:start"
           id="path1341" />
        <path
           d="m 82.272138,88.502636 h 1.15026 v 8.05182 h -1.15026 z"
           style="line-height:1.05;text-align:start;text-anchor:start"
           id="path1343" />
        <path
           d="m 88.184468,96.646476 q -0.908705,0 -1.759897,-0.276062 -0.83969,-0.287565 -1.322799,-0.736166 l 0.425596,-0.897203 q 0.460104,0.414093 1.173265,0.678653 0.724664,0.253057 1.483835,0.253057 1.000727,0 1.495338,-0.333575 0.494612,-0.345078 0.494612,-0.908705 0,-0.414094 -0.276062,-0.667151 -0.26456,-0.26456 -0.667151,-0.402591 -0.391088,-0.138031 -1.115752,-0.31057 -0.908706,-0.21855 -1.472333,-0.437099 -0.552125,-0.21855 -0.954716,-0.667151 -0.391088,-0.460104 -0.391088,-1.230778 0,-0.644146 0.333575,-1.161763 0.345078,-0.517617 1.035234,-0.828187 0.690156,-0.31057 1.713888,-0.31057 0.713161,0 1.403317,0.184042 0.690156,0.184041 1.184768,0.529119 l -0.379586,0.920208 q -0.506115,-0.322073 -1.081245,-0.483109 -0.57513,-0.172539 -1.127254,-0.172539 -0.977721,0 -1.472333,0.356581 -0.483109,0.35658 -0.483109,0.920207 0,0.414094 0.276062,0.678654 0.276062,0.253057 0.678653,0.402591 0.414094,0.138031 1.115753,0.299067 0.908705,0.21855 1.46083,0.437099 0.552125,0.21855 0.943213,0.667151 0.402591,0.448601 0.402591,1.207773 0,0.632643 -0.345078,1.161763 -0.345078,0.517617 -1.046737,0.828187 -0.701658,0.299067 -1.72539,0.299067 z"
           style="line-height:1.05;text-align:start;text-anchor:start"
           id="path1345" />
        <path
           d="m 92.981035,88.502636 h 1.15026 v 8.05182 h -1.15026 z"
           style="line-height:1.05;text-align:start;text-anchor:start"
           id="path1347" />
        <path
           d="m 101.67699,94.541501 h -4.278963 l -0.8857,2.012955 h -1.184768 l 3.646324,-8.05182 h 1.138757 l 3.65783,8.05182 h -1.20778 z m -0.40259,-0.920208 -1.736889,-3.945392 -1.736893,3.945392 z"
           style="line-height:1.05;text-align:start;text-anchor:start"
           id="path1349" />
        <path
           d="m 111.89128,88.502636 v 8.05182 h -0.94321 l -4.83109,-6.004358 v 6.004358 h -1.15026 v -8.05182 h 0.94321 l 4.83109,6.004357 v -6.004357 z"
           style="line-height:1.05;text-align:start;text-anchor:start"
           id="path1351" />
        <path
           d="M 119.43697,94.541501 H 115.158 l -0.8857,2.012955 h -1.18477 l 3.64633,-8.05182 h 1.13876 l 3.65782,8.05182 h -1.20777 z m -0.40259,-0.920208 -1.73689,-3.945392 -1.7369,3.945392 z"
           style="line-height:1.05;text-align:start;text-anchor:start"
           id="path1353" />
      </g>
    </g>
    <g
       aria-label="WWW.APACHECON.COM"
       id="text41785"
       style="font-size:7.88236px;line-height:1.25;font-family:'Montserrat Medium';-inkscape-font-specification:'Montserrat Medium, ';text-align:center;letter-spacing:0px;word-spacing:0px;text-anchor:middle;stroke-width:0.197059"
       inkscape:export-filename="/x1/squibble/server/htdocs/images/conference-logo.png"
       inkscape:export-xdpi="313.15213"
       inkscape:export-ydpi="313.15213"
       transform="matrix(0.70712543,0,0,0.70712543,-9.6687379,25.593713)">
      <path
         d="m 53.944508,93.184153 -1.844472,5.517652 h -0.827648 l -1.50553,-4.406239 -1.505531,4.406239 h -0.843413 l -1.844472,-5.517652 h 0.811883 l 1.489766,4.485063 1.552825,-4.485063 h 0.725177 l 1.521296,4.50871 1.521295,-4.50871 z"
         id="path57400" />
      <path
         d="m 62.820042,93.184153 -1.844473,5.517652 h -0.827648 l -1.50553,-4.406239 -1.505531,4.406239 h -0.843413 l -1.844472,-5.517652 h 0.811883 l 1.489766,4.485063 1.552825,-4.485063 h 0.725177 l 1.521296,4.50871 1.521295,-4.50871 z"
         id="path57402" />
      <path
         d="m 71.695575,93.184153 -1.844473,5.517652 h -0.827647 l -1.505531,-4.406239 -1.505531,4.406239 h -0.843412 l -1.844473,-5.517652 h 0.811883 l 1.489766,4.485063 1.552825,-4.485063 h 0.725177 l 1.521296,4.50871 1.521295,-4.50871 z"
         id="path57404" />
      <path
         d="m 72.554741,98.749099 q -0.220706,0 -0.378353,-0.149765 -0.157647,-0.157647 -0.157647,-0.394118 0,-0.228588 0.157647,-0.378353 0.157647,-0.157647 0.378353,-0.157647 0.220706,0 0.370471,0.149765 0.149765,0.149765 0.149765,0.386235 0,0.236471 -0.157647,0.394118 -0.149765,0.149765 -0.362589,0.149765 z"
         id="path57406" />
      <path
         d="m 78.048733,97.322392 h -2.932238 l -0.606942,1.379413 H 73.69767 l 2.498708,-5.517652 h 0.780354 l 2.50659,5.517652 h -0.827647 z m -0.275883,-0.630589 -1.190236,-2.703649 -1.190236,2.703649 z"
         id="path57408" />
      <path
         d="m 82.454959,93.184153 q 1.072001,0 1.686825,0.512354 0.614824,0.512353 0.614824,1.410942 0,0.898589 -0.614824,1.410942 -0.614824,0.512354 -1.686825,0.512354 h -1.363648 v 1.67106 h -0.788236 v -5.517652 z m -0.02365,3.160826 q 0.748824,0 1.142942,-0.315294 0.394118,-0.323177 0.394118,-0.922236 0,-0.599059 -0.394118,-0.914354 -0.394118,-0.323177 -1.142942,-0.323177 h -1.340001 v 2.475061 z"
         id="path57410" />
      <path
         d="m 89.154953,97.322392 h -2.932238 l -0.606941,1.379413 H 84.80389 l 2.498709,-5.517652 h 0.780353 l 2.506591,5.517652 h -0.827648 z m -0.275882,-0.630589 -1.190237,-2.703649 -1.190236,2.703649 z"
         id="path57412" />
      <path
         d="m 93.797647,98.764864 q -0.827648,0 -1.497648,-0.362589 -0.662119,-0.37047 -1.040472,-1.008942 -0.378353,-0.646353 -0.378353,-1.450354 0,-0.804001 0.378353,-1.442472 0.378353,-0.646353 1.048354,-1.008942 0.670001,-0.370471 1.497648,-0.370471 0.646354,0 1.182354,0.220706 0.536001,0.212824 0.914354,0.638471 l -0.512353,0.496589 q -0.622707,-0.654236 -1.552825,-0.654236 -0.614824,0 -1.111413,0.275883 -0.496589,0.275882 -0.780354,0.764589 -0.275882,0.480824 -0.275882,1.079883 0,0.599059 0.275882,1.087766 0.283765,0.480824 0.780354,0.756706 0.496589,0.275883 1.111413,0.275883 0.922236,0 1.552825,-0.662118 l 0.512353,0.496588 q -0.378353,0.425648 -0.922236,0.646354 -0.536,0.220706 -1.182354,0.220706 z"
         id="path57414" />
      <path
         d="m 101.77459,93.184153 v 5.517652 h -0.78823 v -2.459296 h -3.168712 v 2.459296 h -0.788236 v -5.517652 h 0.788236 v 2.37259 h 3.168712 v -2.37259 z"
         id="path57416" />
      <path
         d="m 107.43411,98.01604 v 0.685765 h -4.00423 v -5.517652 h 3.89388 v 0.685765 h -3.10565 v 1.694708 h 2.76671 v 0.67 h -2.76671 v 1.781414 z"
         id="path57418" />
      <path
         d="m 111.15457,98.764864 q -0.82764,0 -1.49765,-0.362589 -0.66211,-0.37047 -1.04047,-1.008942 -0.37835,-0.646353 -0.37835,-1.450354 0,-0.804001 0.37835,-1.442472 0.37836,-0.646353 1.04836,-1.008942 0.67,-0.370471 1.49765,-0.370471 0.64635,0 1.18235,0.220706 0.536,0.212824 0.91435,0.638471 l -0.51235,0.496589 q -0.62271,-0.654236 -1.55283,-0.654236 -0.61482,0 -1.11141,0.275883 -0.49659,0.275882 -0.78035,0.764589 -0.27588,0.480824 -0.27588,1.079883 0,0.599059 0.27588,1.087766 0.28376,0.480824 0.78035,0.756706 0.49659,0.275883 1.11141,0.275883 0.92224,0 1.55283,-0.662118 l 0.51235,0.496588 q -0.37835,0.425648 -0.92223,0.646354 -0.536,0.220706 -1.18236,0.220706 z"
         id="path57420" />
      <path
         d="m 116.75891,98.764864 q -0.83553,0 -1.50553,-0.362589 -0.67,-0.37047 -1.05623,-1.016824 -0.37836,-0.646354 -0.37836,-1.442472 0,-0.796118 0.37836,-1.442472 0.38623,-0.646353 1.05623,-1.008942 0.67,-0.370471 1.50553,-0.370471 0.82765,0 1.49765,0.370471 0.67,0.362589 1.04835,1.008942 0.37836,0.638471 0.37836,1.442472 0,0.804001 -0.37836,1.450354 -0.37835,0.638472 -1.04835,1.008942 -0.67,0.362589 -1.49765,0.362589 z m 0,-0.70153 q 0.60694,0 1.08777,-0.275883 0.4887,-0.275882 0.76459,-0.756706 0.28376,-0.488707 0.28376,-1.087766 0,-0.599059 -0.28376,-1.079883 -0.27589,-0.488707 -0.76459,-0.764589 -0.48083,-0.275883 -1.08777,-0.275883 -0.60694,0 -1.10353,0.275883 -0.4887,0.275882 -0.77247,0.764589 -0.27588,0.480824 -0.27588,1.079883 0,0.599059 0.27588,1.087766 0.28377,0.480824 0.77247,0.756706 0.49659,0.275883 1.10353,0.275883 z"
         id="path57422" />
      <path
         d="m 125.63444,93.184153 v 5.517652 h -0.64636 l -3.31059,-4.114592 v 4.114592 h -0.78823 v -5.517652 h 0.64635 l 3.31059,4.114592 v -4.114592 z"
         id="path57424" />
      <path
         d="m 127.36066,98.749099 q -0.2207,0 -0.37835,-0.149765 -0.15765,-0.157647 -0.15765,-0.394118 0,-0.228588 0.15765,-0.378353 0.15765,-0.157647 0.37835,-0.157647 0.22071,0 0.37048,0.149765 0.14976,0.149765 0.14976,0.386235 0,0.236471 -0.15765,0.394118 -0.14976,0.149765 -0.36259,0.149765 z"
         id="path57426" />
      <path
         d="m 131.38854,98.764864 q -0.82765,0 -1.49765,-0.362589 -0.66212,-0.37047 -1.04047,-1.008942 -0.37835,-0.646353 -0.37835,-1.450354 0,-0.804001 0.37835,-1.442472 0.37835,-0.646353 1.04835,-1.008942 0.67,-0.370471 1.49765,-0.370471 0.64636,0 1.18236,0.220706 0.536,0.212824 0.91435,0.638471 l -0.51235,0.496589 q -0.62271,-0.654236 -1.55283,-0.654236 -0.61482,0 -1.11141,0.275883 -0.49659,0.275882 -0.78035,0.764589 -0.27589,0.480824 -0.27589,1.079883 0,0.599059 0.27589,1.087766 0.28376,0.480824 0.78035,0.756706 0.49659,0.275883 1.11141,0.275883 0.92224,0 1.55283,-0.662118 l 0.51235,0.496588 q -0.37835,0.425648 -0.92224,0.646354 -0.536,0.220706 -1.18235,0.220706 z"
         id="path57428" />
      <path
         d="m 136.99288,98.764864 q -0.83553,0 -1.50553,-0.362589 -0.67,-0.37047 -1.05623,-1.016824 -0.37836,-0.646354 -0.37836,-1.442472 0,-0.796118 0.37836,-1.442472 0.38623,-0.646353 1.05623,-1.008942 0.67,-0.370471 1.50553,-0.370471 0.82765,0 1.49765,0.370471 0.67,0.362589 1.04836,1.008942 0.37835,0.638471 0.37835,1.442472 0,0.804001 -0.37835,1.450354 -0.37836,0.638472 -1.04836,1.008942 -0.67,0.362589 -1.49765,0.362589 z m 0,-0.70153 q 0.60694,0 1.08777,-0.275883 0.4887,-0.275882 0.76459,-0.756706 0.28376,-0.488707 0.28376,-1.087766 0,-0.599059 -0.28376,-1.079883 -0.27589,-0.488707 -0.76459,-0.764589 -0.48083,-0.275883 -1.08777,-0.275883 -0.60694,0 -1.10353,0.275883 -0.4887,0.275882 -0.77247,0.764589 -0.27588,0.480824 -0.27588,1.079883 0,0.599059 0.27588,1.087766 0.28377,0.480824 0.77247,0.756706 0.49659,0.275883 1.10353,0.275883 z"
         id="path57430" />
      <path
         d="m 146.23888,98.701805 -0.008,-4.020003 -1.99424,3.350003 h -0.36259 l -1.99424,-3.326356 v 3.996356 h -0.7567 v -5.517652 h 0.64635 l 2.30165,3.878121 2.27012,-3.878121 h 0.64635 l 0.008,5.517652 z"
         id="path57432" />
    </g>
    <g
       id="g56989"
       transform="matrix(-0.59694662,0,0,0.59694662,32.266866,28.424828)"
       inkscape:export-filename="/x1/squibble/server/htdocs/images/conference-logo.png"
       inkscape:export-xdpi="313.15213"
       inkscape:export-ydpi="313.15213">
      <path
         id="path56027"
         style="fill:#000000;fill-opacity:1;stroke:none;stroke-width:0.264583px;stroke-linecap:butt;stroke-linejoin:miter;stroke-opacity:1"
         d="m 7.1437502,85.195834 c -3.9687499,0 -3.9687499,5.291667 0,5.291667 h 7.6729158 c 6.614583,0 6.614583,26.458339 6.614583,26.458339 h 10.583334 c 0,0 -1e-6,-26.458339 6.614583,-26.458339 h 7.672916 c 3.968751,0 3.96875,-5.291667 0,-5.291667 H 32.014583 21.431249 Z" />
      <path
         style="fill:#000000;stroke-width:0.131335"
         d="m 40.104705,89.228004 v -4.77955 c 0,-3.659404 -0.04684,-4.82012 -0.199878,-4.952657 -0.109942,-0.0952 -1.794733,-0.90541 -3.743992,-1.800452 -2.556246,-1.17375 -3.673311,-1.627349 -4.007628,-1.627349 -0.303814,0 -0.955887,-0.225886 -1.892652,-0.655641 -0.78603,-0.360603 -1.486646,-0.693062 -1.556922,-0.7388 -0.102536,-0.06674 1.286753,-1.582442 1.830319,-1.996855 0.211412,-0.161184 3.280963,1.291186 3.398917,1.608212 0.07303,0.196299 1.22426,0.7818 4.494202,2.285705 l 4.396013,2.021804 v 5.31779 5.317793 z"
         id="path1432"
         sodipodi:nodetypes="cssssssssscccc"
         inkscape:export-filename="/home/daniel/acna2022.png"
         inkscape:export-xdpi="358.71985"
         inkscape:export-ydpi="358.71985" />
      <circle
         style="fill:#000000;fill-opacity:1;fill-rule:evenodd;stroke-width:0.816307;stroke-linecap:round;stroke-linejoin:round;paint-order:markers fill stroke"
         id="path1312"
         cx="26.651407"
         cy="59.592354"
         r="6.7393522"
         inkscape:export-filename="/home/daniel/acna2022.png"
         inkscape:export-xdpi="358.71985"
         inkscape:export-ydpi="358.71985" />
      <path
         style="fill:#000000;stroke-width:0.103232"
         d="m 17.820276,80.176633 c 0.02754,-4.063236 0.02876,-4.088728 0.247877,-5.163302 0.697012,-3.418233 2.172038,-5.821229 4.157657,-6.773335 0.464648,-0.222798 0.878813,-0.246057 4.381541,-0.246057 4.343271,0 4.327943,-0.0028 5.526265,1.004979 1.162412,0.977564 2.023372,2.435741 2.645601,4.480747 0.565006,1.856935 0.640386,2.619517 0.688655,6.966945 l 0.04234,3.81342 h -8.858803 -8.858806 z"
         id="path1432-7"
         sodipodi:nodetypes="sssscsccccs"
         inkscape:export-filename="/home/daniel/acna2022.png"
         inkscape:export-xdpi="358.71985"
         inkscape:export-ydpi="358.71985" />
      <path
         style="fill:#ffffff;fill-opacity:1;stroke-width:0.131335"
         d="m 35.397616,77.35169 c -2.610169,-1.506982 -2.673111,-1.487242 -3.142243,-1.018109 -0.21483,0.214829 -1.058054,-0.491471 -1.994823,-0.921226 -0.786027,-0.360603 -1.486644,-0.693062 -1.556919,-0.7388 -0.102537,-0.06674 1.510584,-2.023988 2.054146,-2.438405 0.10308,-0.07859 2.725318,0.804753 2.433296,1.617531 -0.196201,0.546084 1.933415,1.042591 1.993856,1.205043 z"
         id="path1432-5"
         sodipodi:nodetypes="cssssscc"
         inkscape:export-filename="/home/daniel/acna2022.png"
         inkscape:export-xdpi="358.71985"
         inkscape:export-ydpi="358.71985" />
      <g
         transform="matrix(0.01517585,0,0,0.01508442,22.260561,87.943315)"
         id="g2996"
         style="fill:#ffffff;fill-opacity:1"
         inkscape:export-filename="/home/daniel/acna2022.png"
         inkscape:export-xdpi="358.71985"
         inkscape:export-ydpi="358.71985">
        <rect
           style="fill:#ffffff;fill-opacity:1;fill-rule:evenodd;stroke-width:22.1697;stroke-linecap:round;stroke-linejoin:round;paint-order:markers fill stroke"
           id="rect4000"
           width="256.86423"
           height="517.51074"
           x="945.87573"
           y="-164.74911"
           rx="138.83423"
           ry="138.2885"
           transform="matrix(0.41518216,-0.9097383,0.90782606,0.41934693,0,0)" />
      </g>
    </g>
    <g
       transform="matrix(0.01155266,0,0,0.01148307,5.6792648,40.924124)"
       id="g58237"
       inkscape:export-filename="/x1/squibble/server/htdocs/images/conference-logo.png"
       inkscape:export-xdpi="313.15213"
       inkscape:export-ydpi="313.15213">
      <path
         d="m 736,8.1 c -27.1,16 -72.2,61.3 -126,127 l 49.3,93.2 c 34.7,-49.5 69.9,-94.2 105,-132 2.8,-3 4.1,-4.4 4.1,-4.4 -1.3,1.4 -2.8,3 -4.1,4.4 -11.5,12.6 -46.4,53.4 -99,134 50.7,-2.5 128,-12.9 192,-23.7 19,-106 -18.5,-154 -18.5,-154 0,0 -47.6,-77 -103,-44.1 z"
         style="fill:url(#cvfj)"
         inkscape:connector-curvature="0"
         id="path58189" />
      <path
         d="m 652,540 c 0.3,-0.1 0.7,-0.1 1.1,-0.2 l -7.1,0.8 -1.2,0.6 c 2.3,-0.5 4.8,-0.9 7.2,-1.2 z"
         style="fill:none"
         inkscape:connector-curvature="0"
         id="path58191" />
      <path
         d="m 602,707 c -4,0.9 -8.1,1.6 -12.3,2.3 4.2,-0.7 8.3,-1.5 12.3,-2.3 z"
         style="fill:none"
         inkscape:connector-curvature="0"
         id="path58193" />
      <path
         d="m 259,1081 c 0.5,-1.3 1,-2.8 1.5,-4.1 10.9,-28.7 21.7,-56.6 32.3,-83.8 11.9,-30.5 23.7,-60 35.5,-88.6 12.3,-30.1 24.5,-59.3 36.4,-87.5 12.5,-29.5 24.9,-58 37.1,-85.4 9.9,-22.3 19.6,-43.9 29.2,-64.8 3.2,-7 6.4,-13.9 9.6,-20.7 6.3,-13.6 12.5,-26.8 18.7,-39.8 5.7,-11.9 11.3,-23.6 17,-35.2 1.9,-3.8 3.7,-7.6 5.6,-11.4 0.3,-0.6 0.6,-1.2 0.9,-1.9 l -6.1,0.6 -4.8,-9.5 c -0.5,0.9 -0.9,1.9 -1.4,2.8 -8.6,17.3 -17.3,34.6 -25.8,52.1 -4.9,10.2 -9.8,20.4 -14.7,30.5 -13.5,28.3 -26.7,57 -39.8,85.6 -13.2,29.1 -26.1,58.3 -38.9,87.6 -12.4,28.8 -24.7,57.6 -36.6,86.3 -11.9,28.7 -23.6,57.3 -35,85.6 -11.9,29.6 -23.4,59 -34.6,88 -2.6,6.6 -5,13.1 -7.6,19.6 -9,23.4 -17.8,46.6 -26.3,69.4 l 7.6,15 6.8,-0.7 c 0.2,-0.7 0.5,-1.3 0.7,-2.1 11.1,-29.8 22,-59.1 32.7,-87.6 z"
         style="fill:none"
         inkscape:connector-curvature="0"
         id="path58195" />
      <path
         d="M 587,710"
         style="fill:none"
         inkscape:connector-curvature="0"
         id="path58197" />
      <path
         d="m 570,791 c -6.3,1.1 -12.7,2.3 -19.4,3.4 0,0 -0.1,0 -0.1,0.1 3.4,-0.5 6.7,-1 10,-1.5 3.1,-0.7 6.3,-1.3 9.5,-2 z"
         style="fill:#bd202e"
         inkscape:connector-curvature="0"
         id="path58199" />
      <path
         d="m 570,791 c -6.3,1.1 -12.7,2.3 -19.4,3.4 0,0 -0.1,0 -0.1,0.1 3.4,-0.5 6.7,-1 10,-1.5 3.1,-0.7 6.3,-1.3 9.5,-2 z"
         inkscape:connector-curvature="0"
         id="path58201" />
      <path
         d="m 587,710 v 0 c -0.1,0 -0.1,0 -0.1,0.1 1,-0.1 2.1,-0.3 3.1,-0.5 4.2,-0.6 8.3,-1.3 12.3,-2.3 -5,0.9 -10,1.8 -15.3,2.7 z"
         style="fill:#bd202e"
         inkscape:connector-curvature="0"
         id="path58203" />
      <path
         d="m 587,710 v 0 c -0.1,0 -0.1,0 -0.1,0.1 1,-0.1 2.1,-0.3 3.1,-0.5 4.2,-0.6 8.3,-1.3 12.3,-2.3 -5,0.9 -10,1.8 -15.3,2.7 z"
         inkscape:connector-curvature="0"
         id="path58205" />
      <path
         d="m 514,469 c 15,-28.1 30.2,-55.5 45.5,-82.1 15.9,-27.8 32.1,-54.6 48.4,-80.6 0.9,-1.5 2,-3.1 2.9,-4.6 16.1,-25.5 32.4,-50.1 48.7,-73.5 L 610.2,135 c -3.7,4.5 -7.4,9.1 -11.2,13.9 -14.3,17.8 -29,36.8 -44.2,57.1 -17.1,22.8 -34.6,47.2 -52.5,72.8 -16.4,23.6 -33.2,48.3 -50,74 -14.3,21.8 -28.5,44.2 -42.7,67.2 -0.5,0.8 -1,1.7 -1.5,2.6 l 64.3,127 C 486,522.1 500,495.2 514,469 Z"
         style="fill:url(#cvfi)"
         inkscape:connector-curvature="0"
         id="path58207" />
      <path
         d="m 221,1184 c -8.5,23.3 -17.1,47.2 -25.6,71.5 -0.1,0.3 -0.2,0.7 -0.4,1 -1.2,3.4 -2.5,6.9 -3.6,10.3 -5.8,16.4 -10.8,31.2 -22.3,64.7 18.9,8.6 34.1,31.4 48.5,57.2 -1.5,-26.7 -12.5,-51.8 -33.6,-71.2 93.3,4.2 174,-19.4 215,-87.6 3.7,-6.1 7.1,-12.4 10.2,-19.3 -18.9,24 -42.4,34.1 -86.5,31.7 -0.1,0 -0.2,0.1 -0.3,0.1 0.1,0 0.2,-0.1 0.3,-0.1 65,-29.1 97.5,-57 126,-103 6.8,-11 13.5,-22.9 20.3,-36.2 -56.8,58.3 -122,74.9 -192,62.3 l -52,5.7 c -1.7,4.4 -3.2,8.7 -4.9,13.1 z"
         style="fill:url(#cvfh)"
         inkscape:connector-curvature="0"
         id="path58209" />
      <path
         d="m 246,1068 c 11.2,-29 22.8,-58.4 34.6,-88 11.4,-28.4 23,-57 35,-85.6 12,-28.6 24.2,-57.5 36.6,-86.3 12.6,-29.3 25.6,-58.5 38.9,-87.6 13.1,-28.8 26.3,-57.4 39.8,-85.6 4.8,-10.2 9.8,-20.4 14.7,-30.5 8.5,-17.5 17.1,-34.9 25.8,-52.1 0.5,-0.9 0.9,-1.9 1.4,-2.8 l -64.3,-127 c -1,1.7 -2.1,3.5 -3.2,5.1 -15,24.5 -29.9,49.5 -44.5,75 -14.8,25.8 -29.3,52.1 -43.5,78.8 -11.9,22.5 -23.6,45.1 -35.1,68.1 -2.3,4.6 -4.5,9.3 -6.8,13.9 -14,28.9 -26.6,56.6 -38.1,83.5 -13,30.3 -24.4,59.3 -34.3,86.8 -6.6,18.1 -12.5,35.5 -18,52.3 -4.5,14.3 -8.7,28.7 -12.9,43 -9.6,33.6 -17.9,67.2 -24.7,101 l 64.6,128 c 8.5,-22.8 17.3,-46 26.3,-69.4 2.7,-6.7 5.1,-13.3 7.7,-19.7 z"
         style="fill:url(#cvfg)"
         inkscape:connector-curvature="0"
         id="path58211" />
      <path
         d="m 146,1034 c -8.1,40.8 -13.9,81.4 -16.8,122 l -0.3,4.2 c -20.2,-32.3 -74.1,-63.8 -74,-63.5 38.7,56 68,112 72.3,166 -20.7,4.2 -49,-1.9 -81.7,-13.9 34.1,31.4 59.7,40 69.8,42.4 -31.4,2 -64,23.5 -96.9,48.3 48.1,-19.6 87,-27.4 115,-21.1 -44.2,125 -88.4,263 -133,410 13.6,-4 21.7,-13.2 26.2,-25.5 7.9,-26.5 60.2,-201 142,-429 2.4,-6.5 4.7,-13.1 7.1,-19.6 0.6,-1.9 1.3,-3.7 2,-5.4 8.6,-24 17.7,-48.5 26.9,-73.5 2.1,-5.7 4.2,-11.4 6.4,-17.1 0,-0.1 0.1,-0.2 0.1,-0.3 l -64.7,-128 c -0.2,1.3 -0.5,2.8 -0.8,4.3 z"
         style="fill:url(#cvff)"
         inkscape:connector-curvature="0"
         id="path58213" />
      <path
         d="m 482,560 c -1.9,3.8 -3.7,7.6 -5.6,11.4 -5.6,11.5 -11.2,23.2 -17,35.2 -6.2,13 -12.4,26.2 -18.7,39.8 -3.2,6.8 -6.4,13.7 -9.6,20.7 -9.6,20.9 -19.3,42.5 -29.2,64.8 -12.1,27.3 -24.6,55.8 -37.1,85.4 -11.9,28.2 -24.2,57.3 -36.4,87.5 -11.7,28.6 -23.5,58.2 -35.5,88.6 -10.7,27.1 -21.5,55.1 -32.3,83.8 -0.5,1.3 -1,2.8 -1.5,4.1 -10.8,28.5 -21.7,57.8 -32.6,87.8 -0.2,0.7 -0.5,1.3 -0.7,2.1 l 52,-5.7 c -1,-0.2 -2.1,-0.3 -3.1,-0.5 62.1,-7.7 145,-54.2 198,-112 24.6,-26.4 46.9,-57.6 67.5,-94.1 15.3,-27.1 29.8,-57.3 43.6,-90.6 12,-29.1 23.5,-60.7 34.6,-94.8 -14.3,7.5 -30.6,13.1 -48.6,16.9 -3.2,0.7 -6.4,1.3 -9.7,1.9 -3.3,0.6 -6.6,1.1 -10,1.5 0,0 0.1,0 0.1,-0.1 58,-22.3 94.5,-65.3 121,-118 -15.2,10.4 -40,24 -69.7,30.5 -4,0.9 -8.1,1.6 -12.3,2.3 -1,0.1 -2.1,0.3 -3.1,0.5 h 0.1 0.1 c 20.2,-8.4 37.1,-17.9 51.8,-29 3.2,-2.4 6.3,-4.8 9.1,-7.4 4.5,-3.9 8.7,-8 12.9,-12.2 2.6,-2.8 5.1,-5.6 7.6,-8.5 5.8,-6.9 11.2,-14.3 16.2,-22.3 1.5,-2.5 3.1,-4.9 4.5,-7.5 2,-3.7 3.8,-7.4 5.6,-10.9 8.1,-16.2 14.6,-30.8 19.7,-43.5 2.6,-6.4 4.8,-12.2 6.8,-17.8 0.8,-2.2 1.5,-4.3 2.2,-6.4 2.1,-6.1 3.7,-11.5 5,-16.3 2,-7.2 3.2,-12.9 3.8,-17 -2,1.5 -4.2,3.1 -6.8,4.6 -17.5,10.5 -47.5,19.9 -71.7,24.4 l 47.7,-5.2 -47.7,5.2 c -0.3,0.1 -0.7,0.1 -1.1,0.2 -2.5,0.4 -4.8,0.8 -7.3,1.1 l 1.2,-0.6 -163,17.9 c 0,0.4 -0.3,1.1 -0.6,1.7 z"
         style="fill:url(#cvfe)"
         inkscape:connector-curvature="0"
         id="path58215" />
      <path
         d="m 666,230 c -14.5,22.3 -30.3,47.6 -47.5,76.3 -0.9,1.4 -1.9,3.1 -2.7,4.5 -14.7,24.8 -30.3,52 -46.9,81.9 -14.2,25.8 -29,53.4 -44.4,83.1 -13.4,25.9 -27.2,53.4 -41.5,82.5 l 163,-17.9 c 47.6,-21.9 68.8,-41.6 89.4,-70.3 5.4,-7.9 11,-16.1 16.4,-24.7 16.8,-26.2 33.2,-55 47.9,-83.7 14.2,-27.7 26.7,-55.1 36.3,-79.9 6.1,-15.7 11,-30.3 14.4,-43.2 3,-11.3 5.3,-22.1 7.1,-32.4 -63.3,10.9 -141,21.3 -192,23.8 z"
         style="fill:url(#cvfd)"
         inkscape:connector-curvature="0"
         id="path58217" />
      <path
         d="m 560,793 c -3.3,0.6 -6.6,1.1 -10,1.5 3.4,-0.3 6.8,-0.9 10,-1.5 z"
         style="fill:#bd202e"
         inkscape:connector-curvature="0"
         id="path58219" />
      <path
         d="m 560,793 c -3.3,0.6 -6.6,1.1 -10,1.5 3.4,-0.3 6.8,-0.9 10,-1.5 z"
         style="opacity:0.35;fill:#bd202e"
         inkscape:connector-curvature="0"
         id="path58221" />
      <path
         d="m 560,793 c -3.3,0.6 -6.6,1.1 -10,1.5 3.4,-0.3 6.8,-0.9 10,-1.5 z"
         style="fill:url(#cvfc)"
         inkscape:connector-curvature="0"
         id="path58223" />
      <path
         d="m 587,710 c 1,-0.1 2.1,-0.3 3.1,-0.5 -1,0.1 -2,0.4 -3.1,0.5 z"
         style="fill:#bd202e"
         inkscape:connector-curvature="0"
         id="path58225" />
      <path
         d="m 587,710 c 1,-0.1 2.1,-0.3 3.1,-0.5 -1,0.1 -2,0.4 -3.1,0.5 z"
         style="opacity:0.35;fill:#bd202e"
         inkscape:connector-curvature="0"
         id="path58227" />
      <path
         d="m 587,710 c 1,-0.1 2.1,-0.3 3.1,-0.5 -1,0.1 -2,0.4 -3.1,0.5 z"
         style="fill:url(#cvfb)"
         inkscape:connector-curvature="0"
         id="path58229" />
      <path
         d="m 587,710 c 0.1,0 0.1,-0.1 0,0 0.1,-0.1 0.1,0 0,0 z"
         style="fill:#bd202e"
         inkscape:connector-curvature="0"
         id="path58231" />
      <path
         d="m 587,710 c 0.1,0 0.1,-0.1 0,0 0.1,-0.1 0.1,0 0,0 z"
         style="opacity:0.35;fill:#bd202e"
         inkscape:connector-curvature="0"
         id="path58233" />
      <path
         d="m 587,710 c 0.1,0 0.1,-0.1 0,0 0.1,-0.1 0.1,0 0,0 z"
         style="fill:url(#cvfa)"
         inkscape:connector-curvature="0"
         id="path58235" />
    </g>
  </g>
</svg>
